# xmcd
# Track frame offsets:
# 150
# 15899
# 29973
# 44497
# 54237
#
# Disc length: 938 seconds
# Revision: 0
# Processed by: cddbd v1.5.2PL0 Copyright (c) Steve Scherf et al.
# Submitted via: VisiTrax 2.10.0.248 - For more info visit www.synapsa.com
#
DISCID=3803a805
DTITLE=David Hamburger - Barrelhouse Guitar
DYEAR=2003
DGENRE=Blues
TTITLE0=Skyline
TTITLE1=Chickens
TTITLE2=Smolderin' (inst.)
TTITLE3=Don't Tailgate Me
TTITLE4=St. James Infirmary
EXTD=
EXTT0=
EXTT1=
EXTT2=
EXTT3=
EXTT4=
PLAYORDER=
